<svg width="32" height="32" viewBox="0 0 32 32" fill="none" xmlns="http://www.w3.org/2000/svg">
<path fill-rule="evenodd" clip-rule="evenodd" d="M29.9738 23.799C30.3788 23.0749 30.7292 22.316 31.0193 21.528C31.6537 19.8051 32 17.943 32 16C32 14.057 31.6537 12.1949 31.0193 10.472C30.7292 9.68399 30.3788 8.92512 29.9738 8.20097C29.5625 7.46568 29.0949 6.76619 28.5768 6.10834C26.4652 7.28689 25.4654 9.85859 26.3272 12.1995C26.7609 13.3774 27 14.6551 27 16C27 17.3449 26.7609 18.6226 26.3272 19.8005C25.4654 22.1414 26.4652 24.7131 28.5768 25.8917C29.0949 25.2338 29.5625 24.5343 29.9738 23.799ZM25.8917 28.5768C24.7131 26.4652 22.1414 25.4654 19.8005 26.3272C18.6226 26.7609 17.3449 27 16 27C14.6551 27 13.3774 26.7609 12.1995 26.3272C9.85859 25.4654 7.28689 26.4652 6.10834 28.5768C6.76619 29.0949 7.46568 29.5625 8.20097 29.9738C8.92512 30.3788 9.68399 30.7292 10.472 31.0193C12.1949 31.6537 14.057 32 16 32C17.943 32 19.8051 31.6537 21.528 31.0193C22.316 30.7292 23.0749 30.3788 23.799 29.9738C24.5343 29.5625 25.2338 29.0949 25.8917 28.5768ZM3.42318 25.8917C5.5348 24.7131 6.53464 22.1414 5.67275 19.8005C5.23909 18.6226 5 17.3449 5 16C5 14.6551 5.23909 13.3774 5.67275 12.1995C6.53463 9.85859 5.5348 7.28689 3.42318 6.10834C2.90506 6.76619 2.43745 7.46568 2.02619 8.20097C1.62117 8.92512 1.27079 9.68399 0.98067 10.472C0.346346 12.1949 0 14.057 0 16C0 17.943 0.346346 19.8051 0.980671 21.528C1.2708 22.316 1.62117 23.0749 2.02619 23.799C2.43745 24.5343 2.90506 25.2338 3.42318 25.8917ZM6.10834 3.42318C7.28689 5.5348 9.85859 6.53464 12.1995 5.67275C13.3774 5.23909 14.6551 5 16 5C17.3449 5 18.6226 5.23909 19.8005 5.67275C22.1414 6.53463 24.7131 5.5348 25.8917 3.42318C25.2338 2.90506 24.5343 2.43745 23.799 2.02619C23.0749 1.62117 22.316 1.27079 21.528 0.98067C19.8051 0.346346 17.943 0 16 0C14.057 0 12.1949 0.346347 10.472 0.980671C9.68399 1.2708 8.92512 1.62117 8.20097 2.02619C7.46568 2.43745 6.76619 2.90506 6.10834 3.42318Z" fill="#6C5DD3"/>
</svg>
