<svg xmlns="http://www.w3.org/2000/svg" xml:space="preserve" width="1500" height="140" data-id="lg_H0S8OrmKV8Xal7CoNG" data-version="1" viewBox="0 0 1500 140"><g data-padding="20"><g transform="translate(10 2.55)scale(.96357)"><rect width="499.934" height="96.05" x="135.368" y="-385.877" fill="none" rx="0" ry="0" transform="matrix(.96 0 0 .96 432.49 418.16)"/><path fill="#1f09ff" d="M595.916 119.79q-8.16 0-15.053-3.793-6.902-3.792-10.982-10.81-4.08-7.017-4.08-16.32 0-9.388 4.08-16.367 4.08-6.97 10.982-10.723 6.893-3.754 15.053-3.754t15.053 3.754T621.942 72.5q4.08 6.98 4.08 16.368 0 9.302-4.08 16.32-4.08 7.017-10.973 10.81t-15.053 3.791m0-8.236q5.626 0 10.282-2.66 4.646-2.65 7.382-7.747t2.736-12.2q0-7.182-2.736-12.28t-7.344-7.709-10.32-2.61-10.368 2.61q-4.646 2.612-7.344 7.71-2.688 5.097-2.688 12.278 0 7.104 2.774 12.201t7.47 7.747q4.684 2.66 10.156 2.66m68.947 7.42-18.355-26.84-4.896 6.037v20.803h-8.976v-59.97h8.976v26.764l20.563-26.765h10.935l-20.65 26.352 23.587 33.62Z"/><path fill="#1f09ff" d="m672.044 118.973 18.365-31.248-17.3-28.723h11.013l11.347 20.967 11.664-20.967h10.77l-17.375 28.56 19.095 31.411h-10.858l-13.22-23.74-12.97 23.74Zm94.81.576q-9.302 0-16.11-4.166-6.815-4.157-10.405-11.136t-3.59-15.38q0-8.898 3.878-15.916 3.869-7.018 10.886-10.973t15.917-3.955q3.994 0 7.469.854 3.466.855 5.75 1.96 2.285 1.103 3.015 1.832l-3.994 8.16q-4.982-4.406-12.98-4.406-5.625 0-10.194 2.774t-7.181 7.92q-2.611 5.136-2.611 11.914 0 6.202 2.323 11.26 2.323 5.06 6.816 7.998 4.483 2.937 10.685 2.937 7.18 0 13.872-4.08l2.697 7.747q-1.795 1.632-6.566 3.14-4.78 1.516-9.677 1.516m62.6-.576h-10.53L806.847 96.29q-3.753.163-6.691.163h-2.285v22.521h-8.89v-59.97h13.623q10.368 0 17.06 4.28 6.69 4.282 6.69 13.911 0 6.04-2.812 10.407-2.823 4.368-8.372 6.73Zm-31.582-29.94h5.799q7.996 0 10.972-3.476 2.976-3.466 2.976-8.275 0-10.695-14.275-10.695h-5.472Zm50.429 29.941V90.99l-20.803-31.987h10.934l14.439 23.664 14.448-23.664h10.848l-20.727 32.15v27.821Zm31.324 0v-59.97h13.22q11.184 0 16.368 4.77 5.174 4.771 5.174 13.094 0 9.63-5.626 14.774-5.635 5.136-16.732 5.136h-3.178v22.195Zm9.226-30.269h3.427q7.18 0 10.032-3.188 2.86-3.177 2.86-7.67 0-4.81-2.773-7.834Q899.622 67 893.094 67h-4.243Zm41.865 30.268V67h-15.34v-7.997h39.906V67h-15.504v51.974Zm54.096.816q-8.16 0-15.052-3.792-6.903-3.792-10.983-10.81-4.08-7.017-4.08-16.32 0-9.388 4.08-16.367 4.08-6.97 10.983-10.723 6.893-3.754 15.053-3.754t15.052 3.754 10.973 10.723q4.08 6.98 4.08 16.368 0 9.302-4.08 16.32-4.08 7.017-10.973 10.81t-15.052 3.791m0-8.236q5.626 0 10.282-2.66 4.647-2.65 7.383-7.747t2.736-12.2q0-7.182-2.736-12.28t-7.344-7.709-10.32-2.61-10.368 2.61q-4.647 2.612-7.344 7.71-2.688 5.097-2.688 12.278 0 7.104 2.774 12.201t7.469 7.747q4.685 2.66 10.157 2.66"/><g stroke="#1f09ff" stroke-width="5" transform="translate(149.194 398.762)scale(1.49)"><path d="M231.128-217.676h34.284" vector-effect="non-scaling-stroke"/>undefined
        undefined</g><g stroke="#1f09ff" stroke-width="5" transform="translate(189.782 350.71)scale(1.49)"><path d="M248.27-200.026v-35.3" vector-effect="non-scaling-stroke"/>undefined
        undefined</g><g stroke="#1f09ff" stroke-width="5" transform="translate(158.209 366.116)scale(1.49)"><path d="m260.59-205.356-24.64-24.64" vector-effect="non-scaling-stroke"/>undefined
        undefined</g><g stroke="#1f09ff" stroke-width="5" transform="translate(162.172 428.652)scale(1.49)"><path d="m260.59-229.996-24.64 24.64" vector-effect="non-scaling-stroke"/>undefined
        undefined</g><g stroke="#1f09ff" stroke-width="5" transform="translate(221.19 364.433)scale(1.49)"><path d="m260.913-230.32-25.286 25.287" vector-effect="non-scaling-stroke"/>undefined
        undefined</g></g><path fill="transparent" stroke="transparent" d="M475.5 0h549v140h-549z"/></g></svg>