<svg width="165" height="31" viewBox="0 0 165 31" fill="none" xmlns="http://www.w3.org/2000/svg">
<g clip-path="url(#clip0_1399_49742)">
<path d="M153.503 25.1484L147.33 10.9685H151.463L155.679 21.1381L160.552 10.9685H164.617L155.008 30.5001H150.875L153.503 25.1484ZM138.472 22.2125C138.836 22.1295 139.188 21.9983 139.519 21.8224C139.838 21.6526 140.134 21.4433 140.401 21.1997C140.668 20.9554 140.899 20.6742 141.086 20.3647C141.282 20.0396 141.434 19.6898 141.537 19.3245C141.65 18.926 141.705 18.5135 141.702 18.0995C141.706 17.6809 141.65 17.2639 141.537 16.8608C141.434 16.4955 141.282 16.1457 141.086 15.8206C140.898 15.5098 140.667 15.2266 140.401 14.9788C140.138 14.733 139.84 14.5257 139.519 14.3629C139.186 14.1956 138.834 14.0692 138.472 13.9865C138.09 13.899 137.7 13.8554 137.308 13.8565C136.919 13.8551 136.531 13.8988 136.152 13.9865C135.793 14.0692 135.446 14.1956 135.118 14.3629C134.798 14.5279 134.501 14.735 134.235 14.9788C133.966 15.2252 133.733 15.5086 133.544 15.8206C133.348 16.145 133.199 16.4951 133.099 16.8608C132.991 17.2647 132.938 17.6814 132.942 18.0995C132.939 18.5131 132.992 18.9252 133.099 19.3245C133.199 19.6902 133.348 20.0403 133.544 20.3647C133.732 20.6755 133.965 20.9568 134.235 21.1997C134.504 21.4413 134.8 21.6504 135.118 21.8224C135.444 21.9982 135.791 22.1294 136.152 22.2125C136.531 22.3004 136.919 22.3441 137.308 22.3426C137.7 22.3438 138.09 22.3002 138.472 22.2125M134.304 25.388C133.67 25.2267 133.06 24.9828 132.49 24.6625C131.38 24.0381 130.463 23.1192 129.842 22.0072C129.521 21.4323 129.278 20.818 129.116 20.18C128.779 18.8089 128.779 17.3765 129.116 16.0054C129.277 15.3693 129.521 14.7572 129.842 14.185C130.466 13.0769 131.382 12.161 132.49 11.5365C133.06 11.2163 133.67 10.9724 134.304 10.8111C134.981 10.6392 135.678 10.5541 136.377 10.5579C136.755 10.557 137.132 10.5799 137.507 10.6263C137.851 10.669 138.192 10.7376 138.526 10.8316C138.836 10.9196 139.14 11.027 139.436 11.1533C139.714 11.2713 139.982 11.4109 140.237 11.5707C140.477 11.7212 140.702 11.8955 140.908 12.0909C141.1 12.2734 141.279 12.4702 141.442 12.6794V10.9685H145.37V25.2306H141.442V23.5197C141.19 23.8348 140.903 24.1196 140.586 24.3683C140.235 24.6436 139.851 24.8735 139.443 25.0526C138.989 25.252 138.514 25.399 138.027 25.4906C137.483 25.5935 136.931 25.644 136.377 25.6412C135.678 25.6449 134.981 25.5598 134.304 25.388M120.043 14.5819C120.605 14.5922 121.167 14.5278 121.713 14.3903C122.138 14.2828 122.535 14.0844 122.876 13.8086C123.184 13.5517 123.42 13.2192 123.56 12.8436C123.713 12.4181 123.788 11.9682 123.779 11.516C123.788 11.066 123.714 10.6182 123.56 10.1952C123.419 9.82365 123.183 9.49564 122.876 9.24389C122.533 8.9722 122.137 8.77627 121.713 8.66903C121.167 8.5317 120.605 8.46727 120.043 8.47741H116.183V14.5819L120.043 14.5819ZM112.118 5.11035H120.426C121.731 5.11035 122.862 5.27004 123.82 5.58941C124.778 5.90878 125.568 6.35133 126.188 6.91707C126.805 7.47801 127.281 8.17677 127.578 8.95646C127.888 9.77842 128.044 10.6509 128.036 11.5297C128.046 12.4063 127.89 13.277 127.578 14.096C127.277 14.8692 126.801 15.5625 126.188 16.1217C125.568 16.6922 124.778 17.137 123.82 17.4562C122.862 17.7758 121.731 17.9355 120.426 17.9353H116.183V25.2306H112.118V5.11035ZM94.662 10.9685H98.5628V12.6794C98.8035 12.3473 99.0891 12.0502 99.4114 11.7966C99.7525 11.5289 100.125 11.3037 100.52 11.1259C100.956 10.9311 101.413 10.7887 101.882 10.7016C102.403 10.6036 102.933 10.5555 103.463 10.5579C104.289 10.546 105.11 10.6852 105.885 10.9685C106.577 11.2231 107.203 11.6274 107.72 12.1524C108.239 12.6965 108.631 13.3485 108.869 14.0618C109.144 14.882 109.278 15.7427 109.266 16.6076V25.2306H105.365V17.6205C105.375 17.0641 105.296 16.5098 105.133 15.978C104.997 15.5389 104.771 15.1332 104.469 14.7872C104.178 14.4658 103.814 14.2193 103.408 14.0686C102.948 13.9021 102.461 13.8209 101.971 13.8291C101.479 13.8213 100.99 13.9025 100.527 14.0686C100.118 14.218 99.7517 14.4646 99.4593 14.7872C99.157 15.1332 98.9308 15.5389 98.7955 15.978C98.632 16.5098 98.5535 17.0641 98.5628 17.6205V25.2306H94.662V10.9685ZM85.0628 22.1715C85.4352 22.0815 85.7958 21.9482 86.1373 21.7745C86.4622 21.6084 86.7598 21.3938 87.0201 21.138C87.2778 20.8857 87.501 20.6003 87.6839 20.2894C87.8704 19.9692 88.0087 19.6234 88.0945 19.2629C88.1876 18.8729 88.2336 18.4731 88.2314 18.0721C88.2338 17.6734 88.1879 17.2758 88.0945 16.8882C87.922 16.1737 87.5492 15.5232 87.0201 15.013C86.7564 14.7595 86.4594 14.5431 86.1373 14.3697C85.7986 14.188 85.4373 14.0523 85.0628 13.9659C84.6566 13.8727 84.2409 13.8267 83.8241 13.8291C83.4119 13.8272 83.0008 13.8732 82.5991 13.9659C82.2266 14.0514 81.8674 14.1873 81.5315 14.3697C81.2122 14.5443 80.9176 14.7606 80.6555 15.013C80.3974 15.2616 80.1782 15.5477 80.0054 15.8616C79.8288 16.1842 79.691 16.5265 79.5948 16.8814C79.4914 17.2697 79.4407 17.6703 79.4442 18.0721C79.4419 18.474 79.4925 18.8743 79.5948 19.2629C79.6884 19.6209 79.8264 19.9657 80.0054 20.2895C80.1803 20.602 80.3993 20.8878 80.6555 21.1381C80.9142 21.3927 81.2094 21.6072 81.5315 21.7745C81.8702 21.949 82.2287 22.0823 82.5991 22.1715C83.0001 22.2689 83.4115 22.3171 83.8241 22.3152C84.2413 22.3177 84.6573 22.2694 85.0628 22.1715M81.5246 25.3811C80.8208 25.2173 80.1386 24.9715 79.4921 24.6488C78.8839 24.3457 78.3199 23.9612 77.8154 23.5059C77.3265 23.0636 76.9026 22.5545 76.5562 21.9935C76.205 21.4225 75.9355 20.8052 75.7555 20.1595C75.3814 18.7931 75.3814 17.3512 75.7555 15.9849C75.9348 15.341 76.2043 14.7258 76.5562 14.1576C76.9051 13.5985 77.3287 13.0896 77.8154 12.6452C78.3185 12.1864 78.8828 11.7994 79.4921 11.4955C80.1387 11.1729 80.8209 10.9271 81.5246 10.7632C83.0472 10.4165 84.6283 10.4165 86.1509 10.7632C86.8507 10.9257 87.5285 11.1715 88.1698 11.4955C88.7764 11.804 89.3401 12.1905 89.8465 12.6452C90.3407 13.088 90.7713 13.597 91.1262 14.1576C91.482 14.7246 91.754 15.3401 91.9338 15.9849C92.3079 17.3512 92.3079 18.7931 91.9338 20.1595C91.7532 20.8061 91.4813 21.4237 91.1262 21.9935C90.7738 22.556 90.3429 23.0653 89.8465 23.5059C89.3388 23.9571 88.7753 24.3412 88.1698 24.6488C87.5307 24.9722 86.8552 25.218 86.1578 25.3811C84.6329 25.7278 83.0495 25.7278 81.5246 25.3811M66.3029 22.1715C66.6753 22.0815 67.0359 21.9483 67.3774 21.7745C67.7022 21.6084 67.9999 21.3938 68.2602 21.138C68.5179 20.8857 68.7411 20.6003 68.924 20.2894C69.1106 19.9693 69.249 19.6234 69.3346 19.2629C69.4277 18.8729 69.4737 18.4731 69.4715 18.0721C69.4739 17.6734 69.428 17.2758 69.3346 16.8882C69.1621 16.1737 68.7893 15.5232 68.2602 15.013C67.9965 14.7595 67.6995 14.5431 67.3774 14.3697C67.0387 14.188 66.6774 14.0522 66.3029 13.9659C65.8967 13.8727 65.481 13.8267 65.0642 13.8291C64.652 13.8272 64.2409 13.8732 63.8392 13.9659C63.4667 14.0514 63.1075 14.1873 62.7716 14.3697C62.4523 14.5443 62.1578 14.7606 61.8956 15.013C61.6375 15.2616 61.4183 15.5477 61.2455 15.8616C61.0691 16.1842 60.9312 16.5265 60.8349 16.8813C60.7315 17.2697 60.6808 17.6702 60.6843 18.0721C60.682 18.4739 60.7326 18.8743 60.8349 19.2629C60.9287 19.6208 61.0666 19.9656 61.2455 20.2894C61.4205 20.602 61.6394 20.8878 61.8956 21.138C62.1543 21.3926 62.4496 21.6071 62.7716 21.7745C63.1103 21.949 63.4688 22.0823 63.8392 22.1715C64.2402 22.2688 64.6516 22.3171 65.0642 22.3152C65.4814 22.3176 65.8974 22.2694 66.3029 22.1715M62.7648 25.3811C62.061 25.2173 61.3788 24.9716 60.7322 24.6489C60.1241 24.3457 59.56 23.9612 59.0555 23.506C58.5667 23.0637 58.1428 22.5545 57.7963 21.9936C57.4451 21.4226 57.1756 20.8052 56.9956 20.1595C56.6215 18.7931 56.6215 17.3513 56.9956 15.9849C57.1749 15.3411 57.4445 14.7259 57.7963 14.1577C58.1452 13.5986 58.5689 13.0897 59.0555 12.6453C59.5587 12.1865 60.1229 11.7995 60.7322 11.4955C61.3788 11.173 62.061 10.9272 62.7648 10.7633C64.2874 10.4165 65.8684 10.4165 67.391 10.7633C68.0909 10.9257 68.7687 11.1716 69.4099 11.4955C70.0166 11.804 70.5803 12.1905 71.0866 12.6453C71.5808 13.088 72.0115 13.597 72.3664 14.1577C72.7222 14.7247 72.9942 15.3401 73.1739 15.9849C73.548 17.3513 73.548 18.7931 73.1739 20.1595C72.9934 20.8062 72.7215 21.4238 72.3664 21.9936C72.014 22.5561 71.583 23.0654 71.0866 23.506C70.5789 23.9572 70.0154 24.3413 69.4099 24.6489C68.7708 24.9723 68.0953 25.2181 67.3979 25.3811C65.873 25.7278 64.2897 25.7278 62.7648 25.3811M31.9766 5.11035H36.0827L43.1043 15.8411L50.1532 5.11035H54.2594V25.2306H50.1943V11.4338L44.3635 20.3305H41.8724L36.0417 11.4338V25.2306H31.9766V5.11035Z" fill="#7D00FF"/>
<path d="M22.5993 8.71233C23.4114 8.71233 24.2053 8.47151 24.8806 8.02032C25.5558 7.56912 26.0821 6.92783 26.3929 6.17753C26.7037 5.42722 26.785 4.60161 26.6266 3.80509C26.4681 3.00858 26.0771 2.27693 25.5028 1.70267C24.9286 1.12841 24.1969 0.737338 23.4004 0.578901C22.6039 0.420463 21.7783 0.501779 21.028 0.812565C20.2777 1.12335 19.6364 1.64965 19.1852 2.3249C18.734 3.00016 18.4932 3.79404 18.4932 4.60617C18.4931 5.1454 18.5993 5.67937 18.8057 6.17757C19.012 6.67576 19.3145 7.12844 19.6957 7.50974C20.077 7.89104 20.5297 8.19349 21.0279 8.39983C21.5261 8.60618 22.0601 8.71236 22.5993 8.71233M10.0088 27.2054C8.02924 27.2054 6.09414 26.6184 4.44821 25.5187C2.80227 24.4189 1.51942 22.8557 0.761877 21.0269C0.00433553 19.198 -0.193871 17.1856 0.192322 15.244C0.578515 13.3025 1.53176 11.5191 2.93152 10.1194C4.33127 8.71963 6.11467 7.76639 8.05619 7.3802C9.9977 6.99401 12.0101 7.19222 13.839 7.94977C15.6679 8.70731 17.231 9.99017 18.3308 11.6361C19.4306 13.282 20.0176 15.2171 20.0176 17.1967C20.0176 18.5111 19.7587 19.8126 19.2558 21.0269C18.7528 22.2413 18.0155 23.3446 17.0861 24.274C16.1567 25.2034 15.0534 25.9407 13.839 26.4437C12.6247 26.9466 11.3232 27.2055 10.0088 27.2054" fill="#7D00FF"/>
</g>
<defs>
<clipPath id="clip0_1399_49742">
<rect width="164.616" height="30" fill="white" transform="translate(0 0.5)"/>
</clipPath>
</defs>
</svg>