<svg width="110" height="35" viewBox="0 0 110 35" fill="none" xmlns="http://www.w3.org/2000/svg">
<g clip-path="url(#clip0_1399_49610)">
<path d="M17.5 35C27.165 35 35 27.165 35 17.5C35 7.83502 27.165 0 17.5 0C7.83502 0 0 7.83502 0 17.5C0 27.165 7.83502 35 17.5 35Z" fill="url(#paint0_linear_1399_49610)"/>
<path d="M28.5499 16.43L23.607 11.4871L23.598 11.4782L23.5785 11.461C23.5465 11.4321 23.513 11.4049 23.4782 11.3795C23.4537 11.3599 23.4293 11.3412 23.4032 11.324C23.3918 11.3159 23.3803 11.3094 23.3681 11.302C23.0863 11.1175 22.7454 11.0456 22.4131 11.1008C22.0808 11.1559 21.7813 11.334 21.5742 11.5996L13.8867 19.288V12.4387C13.8867 12.0786 13.7437 11.7333 13.4891 11.4787C13.2344 11.2241 12.8891 11.0811 12.5291 11.0811C12.169 11.0811 11.8237 11.2241 11.5691 11.4787C11.3145 11.7333 11.1714 12.0786 11.1714 12.4387V19.288L8.36484 16.4814C8.1083 16.2368 7.76626 16.1022 7.41181 16.1064C7.05735 16.1106 6.71861 16.2533 6.46795 16.504C6.2173 16.7546 6.07462 17.0934 6.07041 17.4478C6.06619 17.8023 6.20078 18.1443 6.4454 18.4009L11.5693 23.5248C11.6015 23.5574 11.6356 23.5882 11.6713 23.6169C11.7055 23.6447 11.7414 23.6716 11.7773 23.6985C11.9624 23.8184 12.174 23.8915 12.3937 23.9113H12.3994C12.4434 23.9154 12.4875 23.9178 12.5315 23.9178H12.5519C12.5889 23.9178 12.6256 23.9162 12.662 23.9129H12.6889C12.7239 23.9088 12.759 23.9048 12.7932 23.8974H12.8087C12.8471 23.8893 12.8854 23.8803 12.9229 23.8689H12.9294C12.9704 23.8566 13.0106 23.8421 13.0501 23.8257C13.1063 23.8024 13.1608 23.7752 13.2132 23.7441L13.2442 23.7262C13.2954 23.6948 13.3445 23.66 13.3909 23.6218L13.4048 23.6096C13.4333 23.5851 13.4619 23.5607 13.4863 23.5329L21.2815 15.7329V22.561C21.2815 22.9211 21.4245 23.2664 21.6791 23.521C21.9338 23.7756 22.2791 23.9186 22.6391 23.9186C22.9992 23.9186 23.3445 23.7756 23.5991 23.521C23.8537 23.2664 23.9968 22.9211 23.9968 22.561V15.7117L26.6305 18.3503C26.8862 18.5999 27.2299 18.7386 27.5872 18.7364C27.9444 18.7342 28.2864 18.5913 28.539 18.3386C28.7916 18.0859 28.9344 17.7438 28.9364 17.3866C28.9385 17.0293 28.7996 16.6856 28.5499 16.43Z" fill="white"/>
<path d="M41.1172 13.4149H45.1452V23.9367H47.558V13.4149H51.586V11.1611H41.1172V13.4149Z" fill="#1461DB"/>
<path d="M56.8718 14.3331C56.5861 14.3529 56.3034 14.4035 56.0286 14.4839C55.764 14.5609 55.5107 14.6725 55.2752 14.8158C54.979 14.9887 54.7197 15.2181 54.512 15.4909C54.414 15.6205 54.3252 15.7567 54.2462 15.8986V14.3551H52.1172V23.9368H54.552V19.0395C54.5455 18.7035 54.5948 18.3687 54.6979 18.0488C54.7913 17.7657 54.943 17.5054 55.1433 17.2846C55.3436 17.0638 55.588 16.8875 55.8607 16.767C56.1604 16.6268 56.4837 16.5438 56.8139 16.5224C57.1255 16.4915 57.4403 16.5192 57.7418 16.604V14.3551C57.4532 14.3193 57.1618 14.3119 56.8718 14.3331Z" fill="#1461DB"/>
<path d="M66.8912 15.8281C66.5773 15.2106 66.0466 14.7306 65.4007 14.4803C64.7445 14.2193 63.9933 14.0889 63.1469 14.0889C61.9939 14.0889 61.0831 14.3376 60.4145 14.835C59.7594 15.3124 59.2795 15.992 59.0487 16.7691L61.2307 17.4605C61.3851 17.0224 61.6542 16.718 62.038 16.5473C62.3852 16.3839 62.7632 16.2961 63.1469 16.2896C63.7862 16.2896 64.2417 16.4228 64.5135 16.6892C64.7263 16.8971 64.8535 17.2012 64.8992 17.5942C64.4915 17.6554 64.1042 17.7133 63.7413 17.7663C63.1211 17.8582 62.5653 17.9544 62.0738 18.0549C61.6431 18.1393 61.2191 18.2549 60.8051 18.4007C60.3534 18.5548 59.936 18.7955 59.5763 19.1093C59.2814 19.3758 59.0547 19.7091 58.915 20.0812C58.7755 20.4709 58.7064 20.8823 58.7112 21.2961C58.7055 21.8064 58.8325 22.3093 59.0797 22.7557C59.3316 23.2052 59.7071 23.5731 60.1618 23.8157C60.6379 24.0794 61.219 24.2109 61.9051 24.2104C62.7335 24.2104 63.4182 24.0669 63.959 23.7798C64.4236 23.5209 64.8345 23.1758 65.1699 22.763V23.9445H67.2818V18.081C67.2837 17.6844 67.2657 17.2879 67.228 16.893C67.1869 16.5193 67.0725 16.1574 66.8912 15.8281ZM64.6375 21.0271C64.538 21.2112 64.4143 21.3812 64.2697 21.5326C64.062 21.7543 63.8155 21.9361 63.5424 22.0691C63.1922 22.236 62.8072 22.3165 62.4196 22.304C62.1743 22.31 61.9303 22.2679 61.7012 22.18C61.5142 22.1086 61.3523 21.9839 61.2356 21.8213C61.1235 21.6552 61.0665 21.4581 61.0725 21.2578C61.0705 21.1067 61.1058 20.9574 61.1753 20.8232C61.2534 20.6811 61.3624 20.5582 61.4941 20.4636C61.6703 20.3374 61.8622 20.2346 62.0649 20.1578C62.2998 20.0725 62.5397 20.0015 62.7832 19.945C63.055 19.8798 63.413 19.8072 63.8571 19.7273C64.1401 19.6768 64.4858 19.6164 64.8804 19.5496C64.8755 19.72 64.8682 19.9034 64.8552 20.1203C64.8421 20.4339 64.7682 20.7418 64.6375 21.0271Z" fill="#1461DB"/>
<path d="M78.3338 16.6393C78.2161 16.203 78.026 15.7895 77.7712 15.4162C77.4873 15.0085 77.108 14.6765 76.6663 14.4491C76.1934 14.1953 75.5813 14.0684 74.8301 14.0684C73.8897 14.0684 73.1104 14.2722 72.4923 14.6799C72.2089 14.8673 71.951 15.0906 71.7251 15.3445V14.3546H69.5781V23.9363H72.0243V19.0749C72.0243 18.4769 72.0906 17.9977 72.2233 17.6373C72.3559 17.2769 72.5271 17.0035 72.737 16.8171C72.926 16.6407 73.154 16.5113 73.4023 16.4395C73.6187 16.3772 73.8425 16.3443 74.0677 16.3417C74.5819 16.3417 74.9796 16.4572 75.2606 16.6882C75.5384 16.9137 75.7489 17.2113 75.8689 17.5485C75.9901 17.8781 76.0648 18.2231 76.0907 18.5734C76.1146 18.9132 76.1263 19.1926 76.1258 19.4116V23.9363H78.5719V18.5596C78.5719 18.3965 78.5605 18.1461 78.5369 17.7963C78.5062 17.4051 78.4382 17.0176 78.3338 16.6393Z" fill="#1461DB"/>
<path d="M87.3659 18.8642C86.9245 18.6141 86.3404 18.394 85.6136 18.2037C84.8684 18.0146 84.3139 17.8607 83.9502 17.7422C83.5866 17.6237 83.3471 17.5085 83.2319 17.3965C83.1754 17.3429 83.1307 17.278 83.1008 17.2061C83.0709 17.1342 83.0564 17.0569 83.0582 16.979C83.0582 16.701 83.1927 16.4898 83.4618 16.3406C83.7309 16.1913 84.088 16.1343 84.5308 16.1636C84.9863 16.1989 85.3473 16.3202 85.6136 16.5273C85.7446 16.6284 85.8531 16.7555 85.9325 16.9006C86.012 17.0457 86.0605 17.2056 86.0752 17.3704L88.5417 16.926C88.4691 16.3706 88.2397 15.8473 87.8804 15.4175C87.5013 14.977 87.0177 14.6386 86.4739 14.4333C85.8366 14.1922 85.1591 14.0746 84.4778 14.0868C83.7032 14.0868 83.0305 14.2097 82.4597 14.4554C81.926 14.671 81.4651 15.0349 81.1314 15.504C80.8124 15.9761 80.6483 16.5358 80.6618 17.1054C80.6487 17.5441 80.7558 17.9781 80.9716 18.3603C81.1787 18.7071 81.516 19.0045 81.9835 19.2523C82.451 19.5002 83.0761 19.725 83.8589 19.9267C84.5504 20.1104 85.0603 20.2583 85.3886 20.3702C85.7148 20.4828 85.9284 20.5961 86.023 20.7119C86.1227 20.8426 86.1729 21.0043 86.1649 21.1685C86.1703 21.3065 86.1406 21.4436 86.0786 21.567C86.0165 21.6903 85.9242 21.7959 85.8102 21.8738C85.5721 22.0418 85.2356 22.1258 84.8007 22.1258C84.268 22.1258 83.8287 21.9986 83.483 21.7442C83.1349 21.4873 82.8959 21.1089 82.8136 20.6842L80.3438 21.0658C80.5036 22.0654 80.9545 22.839 81.6965 23.3864C82.4385 23.9338 83.4129 24.2072 84.6197 24.2067C85.8738 24.2067 86.8555 23.9256 87.5649 23.3635C88.2743 22.8015 88.6303 22.0285 88.6331 21.0446C88.6461 20.6009 88.542 20.1616 88.3314 19.7709C88.1286 19.4198 87.8068 19.1175 87.3659 18.8642Z" fill="#1461DB"/>
<path d="M98.2272 15.8281C97.9131 15.2107 97.3824 14.7308 96.7366 14.4803C96.08 14.2193 95.3287 14.0889 94.4829 14.0889C93.3299 14.0889 92.4191 14.3376 91.7505 14.835C91.0954 15.3125 90.6153 15.9921 90.3839 16.7691L92.5667 17.4605C92.7211 17.0224 92.9902 16.718 93.374 16.5473C93.7212 16.3839 94.0992 16.2961 94.4829 16.2896C95.1222 16.2896 95.5777 16.4228 95.8495 16.6892C96.0623 16.8971 96.1887 17.2012 96.2352 17.5942C95.8275 17.6554 95.4402 17.7133 95.0773 17.7663C94.4571 17.8582 93.9012 17.9544 93.4098 18.0549C92.9791 18.1393 92.5551 18.2549 92.1411 18.4007C91.6268 18.5909 91.2172 18.826 90.9123 19.106C90.6174 19.3725 90.3906 19.7058 90.251 20.0779C90.111 20.4675 90.042 20.879 90.0471 21.2929C90.0415 21.8031 90.1685 22.3061 90.4157 22.7524C90.6674 23.2021 91.043 23.57 91.4977 23.8124C91.9739 24.0761 92.555 24.2076 93.241 24.2071C94.0695 24.2071 94.7541 24.0636 95.295 23.7766C95.7596 23.5176 96.1705 23.1725 96.5059 22.7598V23.9413H98.6178V18.081C98.6196 17.6844 98.6017 17.2879 98.5639 16.893C98.5229 16.5193 98.4085 16.1574 98.2272 15.8281ZM95.9734 21.0271C95.8739 21.2112 95.7503 21.3812 95.6057 21.5326C95.398 21.7543 95.1515 21.9361 94.8784 22.0691C94.5282 22.236 94.1432 22.3165 93.7556 22.304C93.5103 22.31 93.2662 22.2679 93.0372 22.18C92.8502 22.1086 92.6883 21.9839 92.5716 21.8213C92.4595 21.6552 92.4025 21.4581 92.4085 21.2578C92.4065 21.1067 92.4418 20.9574 92.5113 20.8232C92.5891 20.6809 92.6981 20.558 92.8301 20.4636C93.0063 20.3374 93.1982 20.2346 93.4009 20.1578C93.6358 20.0724 93.8757 20.0013 94.1192 19.945C94.391 19.8798 94.749 19.8072 95.1931 19.7273C95.476 19.6768 95.8218 19.6164 96.2164 19.5496C96.2115 19.72 96.2034 19.9034 96.1911 20.1203C96.1774 20.4337 96.1035 20.7416 95.9734 21.0271Z" fill="#1461DB"/>
<path d="M106.141 19.1455L109.601 14.355H106.62L103.373 18.9685V11.1611H100.924L100.906 23.9367H103.373V19.3232L106.691 23.9367H109.832L106.141 19.1455Z" fill="#1461DB"/>
</g>
<defs>
<linearGradient id="paint0_linear_1399_49610" x1="2.34181" y1="8.74837" x2="32.6582" y2="26.2508" gradientUnits="userSpaceOnUse">
<stop offset="0.13" stop-color="#348BED"/>
<stop offset="0.31" stop-color="#2B80E8"/>
<stop offset="0.64" stop-color="#1461DB"/>
<stop offset="0.72" stop-color="#0E57D7"/>
</linearGradient>
<clipPath id="clip0_1399_49610">
<rect width="109.834" height="35" fill="white"/>
</clipPath>
</defs>
</svg>