<svg width="105" height="35" viewBox="0 0 105 35" fill="none" xmlns="http://www.w3.org/2000/svg">
<g clip-path="url(#clip0_1399_49729)">
<path d="M58.6875 29.7503C61.9021 30.2008 63.8589 29.6117 65.3789 28.1042C66.3397 27.1686 67.0561 26.0597 67.7025 24.8988C70.2882 20.2033 76.5253 8.83691 76.5253 8.83691H72.0353L67.3705 18.1414L65.9204 8.83691H61.1509V9.04484C61.1509 9.04484 62.7582 17.5523 63.5968 21.9186C63.7191 22.577 63.8414 24.2404 62.6534 25.332C61.9895 25.9384 61.0286 26.4409 59.3863 26.181L58.6875 29.7503Z" fill="#0054FF"/>
<path d="M55.1242 8.83691L50.774 18.6092L50.6691 18.5919L50.0751 9.07949H45.358L40.7457 18.6092L40.6234 18.5745L40.4312 8.83691H35.9062L36.8147 24.4483H41.7066L46.4412 14.2602L46.546 14.2775L47.2973 24.4483H52.2241L59.3522 8.83691H55.1242Z" fill="#0054FF"/>
<path d="M81.2677 24.4487H76.5156C77.5813 19.1813 78.5772 14.1046 79.6429 8.85461H83.3293V11.7308C83.8185 10.5526 84.4998 9.44372 85.6354 8.95857C86.7536 8.49075 88.4832 8.50808 90.2477 9.04521C89.5489 10.3794 89.0248 11.5749 88.2735 13.013C87.5922 12.8744 86.9807 12.7011 86.3692 12.6492C84.9715 12.5106 83.9582 13.065 83.4865 14.3818C83.1546 15.3002 82.9449 16.2705 82.7527 17.2234C82.2286 19.5972 81.7569 22.0056 81.2677 24.4487Z" fill="#0054FF"/>
<path d="M96.4323 12.5444C97.1137 11.7301 98.3367 11.2796 99.2451 11.5568C100.346 11.9033 100.713 13.1162 99.9265 13.9652C99.6644 14.2598 99.2801 14.485 98.9132 14.6236C97.7776 15.0568 96.5896 15.0395 95.3491 14.8316C95.5588 13.9306 95.8907 13.2028 96.4323 12.5444ZM102.512 20.5667C102.512 20.5667 102.477 20.5667 102.355 20.5667C100.538 21.2598 98.5114 21.433 97.1312 21.0519C95.5937 20.6187 94.7027 19.3019 94.9822 17.7944C99.5596 18.1756 101.499 17.3093 102.547 16.6855C105.377 15.0048 106.094 10.5172 102.407 9.20037C99.1753 8.03948 94.6503 8.59393 92.5188 11.1583C90.5796 13.4974 90.003 16.0618 90.3001 18.9207C90.5272 21.0692 92.0122 24.1533 96.8691 24.6385C99.8042 24.933 101.691 24.188 101.831 24.1187L102.512 20.5667Z" fill="#0054FF"/>
<path d="M17.9403 17.5176H28.7373L22.9195 31.6215C22.1159 33.5795 20.1941 34.8443 18.0626 34.8443H7.26562L13.1009 20.7404C13.9046 18.7824 15.8089 17.5176 17.9403 17.5176Z" fill="#94C4FF"/>
<path d="M28.7393 17.5176L22.2052 25.7651C21.2094 27.0819 19.7069 27.9309 17.9598 27.9309H10.1328L13.1029 20.7577C13.9065 18.7998 15.8283 17.5349 17.9598 17.5349L28.7393 17.5176Z" fill="#1A33B0"/>
<path d="M14.3544 8.83691H25.1514L19.3336 22.9409C18.5299 24.8988 16.6081 26.1636 14.4767 26.1636H3.67969L9.49749 12.0597C10.3186 10.1191 12.2404 8.83691 14.3544 8.83691Z" fill="#0091FF"/>
<path d="M25.1534 8.83691L18.6193 17.0844C17.6234 18.4013 16.1209 19.2503 14.3738 19.2503H6.54688L9.51692 12.077C10.3206 10.1191 12.2424 8.85424 14.3738 8.85424L25.1534 8.83691Z" fill="#1A33B0"/>
<path d="M10.7937 0.15625H21.5907L15.7729 14.2602C14.9693 16.2181 13.0475 17.483 10.916 17.483H0.101562L5.93684 3.37902C6.7405 1.43843 8.6623 0.15625 10.7937 0.15625Z" fill="#0054FF"/>
</g>
<defs>
<clipPath id="clip0_1399_49729">
<rect width="105" height="35" fill="white"/>
</clipPath>
</defs>
</svg>