<svg width="54" height="16" viewBox="0 0 54 16" fill="none" xmlns="http://www.w3.org/2000/svg">
<path fill-rule="evenodd" clip-rule="evenodd" d="M5.38637 0.0285623C4.03549 0.135105 3.02581 0.47976 2.15166 1.13275C1.64759 1.50932 1.29203 1.94453 1.00415 2.53718C0.69373 3.17644 0.594531 3.60962 0.590294 4.34491C0.583176 5.57163 0.997259 6.48442 1.9688 7.38399C2.28826 7.67972 2.52807 7.83575 3.06298 8.09606C3.9025 8.5045 4.41782 8.67431 6.25108 9.14664C7.03739 9.34921 7.87629 9.59077 8.1153 9.68342C9.08713 10.0601 9.43981 10.4836 9.44139 11.2758C9.44314 12.1569 8.74479 12.922 7.66687 13.2198C7.50005 13.2659 7.07066 13.3188 6.71262 13.3372C4.80174 13.4357 3.61383 12.6093 3.16597 10.8697C3.06383 10.473 3.04649 10.445 2.89408 10.4313C2.71647 10.4152 0.0588215 10.6704 0.022215 10.7071C-0.0215095 10.7508 0.161241 11.6558 0.30778 12.1213C0.603513 13.0607 0.946812 13.6692 1.53715 14.3002C2.55563 15.3891 3.95397 15.9149 6.03602 15.9918C7.43944 16.0437 8.76225 15.8473 9.73362 15.443C12.0134 14.4939 13.1045 12.0875 12.3625 9.64546C12.0708 8.68567 11.3872 7.84089 10.4662 7.30202C9.74729 6.88144 8.51758 6.45498 6.91164 6.06937C5.43083 5.71376 4.38014 5.33205 3.99865 5.01106C3.58372 4.66194 3.46159 3.99918 3.72456 3.52369C4.03667 2.95929 4.94777 2.61593 6.149 2.60994C7.1972 2.60469 7.96865 2.84337 8.3659 3.29586C8.58046 3.54019 8.89991 4.21752 8.95081 4.53602C8.97149 4.66533 9.00606 4.78199 9.02759 4.79532C9.04911 4.80859 9.76085 4.79012 10.6092 4.75425L12.1517 4.689L12.1165 4.27215C12.0662 3.6769 11.9401 3.23203 11.6569 2.65017C10.9721 1.2433 9.69419 0.398356 7.81618 0.110645C7.11608 0.0034237 6.12833 -0.029963 5.38637 0.0285623ZM27.2203 7.98862V15.728H28.8021H30.3839V12.8267V9.92549L32.347 9.89255C34.3839 9.85843 35.0849 9.80442 35.7703 9.62891C37.5222 9.18042 38.759 7.78366 39.0279 5.95023C39.1273 5.27216 39.0719 4.08392 38.9135 3.49754C38.5672 2.21603 37.742 1.22867 36.5748 0.699455C35.7449 0.323109 34.7666 0.251308 30.4545 0.250122L27.2203 0.249275V7.98862ZM44.4551 0.376381C44.159 1.14608 42.9868 4.16137 42.3304 5.84194C41.8753 7.00708 41.291 8.50693 41.032 9.17494C40.7731 9.84295 40.1016 11.5687 39.5399 13.0099C38.9782 14.4512 38.5187 15.6527 38.5187 15.68C38.5187 15.7077 39.2463 15.723 40.168 15.7147L41.8175 15.6997L42.4448 13.9767L43.0722 12.2537H46.1695H49.2667L49.5724 13.0446C49.7405 13.4796 50.0443 14.2613 50.2476 14.7817L50.6171 15.728H52.3133C53.9045 15.728 54.0072 15.7219 53.974 15.6291C53.9545 15.5748 52.5615 12.092 50.8785 7.88976L47.8186 0.249275H46.1613H44.5039L44.4551 0.376381ZM34.3383 3.04261C35.0517 3.27242 35.538 3.72271 35.7412 4.3418C36.0798 5.37317 35.6787 6.42696 34.7694 6.89528C34.2635 7.15582 33.8726 7.20536 32.0645 7.23796L30.3839 7.26829V5.08105V2.89381L32.2057 2.91816C33.7488 2.93878 34.0751 2.95782 34.3383 3.04261ZM47.1983 6.75942C47.7678 8.28988 48.2341 9.54852 48.2345 9.55626C48.2349 9.564 47.2961 9.57038 46.1484 9.57038H44.0616L44.2798 8.96309C45.1512 6.5374 46.1176 3.93145 46.1381 3.95201C46.1517 3.96557 46.6287 5.22889 47.1983 6.75942Z" fill="#0048AA"/>
<path d="M15.8206 3.27043C16.8141 1.6233 18.5324 0.49494 20.6029 0.130118C21.6119 -0.0477176 22.8902 -0.00241081 23.8512 0.245135C24.262 0.351 25.1627 0.751413 25.2282 0.857278C25.2612 0.910719 24.9025 2.66077 24.8472 2.71608C24.8305 2.7328 24.7201 2.66992 24.6019 2.57637C24.0778 2.16127 23.2787 1.85401 22.4785 1.75979C21.4411 1.63771 20.2909 1.84746 19.3601 2.32843C18.6089 2.71658 17.7262 3.7314 17.3071 4.68859C17.1415 5.06703 16.9592 5.6616 16.9592 5.82356C16.9592 5.88231 17.6563 5.89644 20.553 5.89644H24.1468L24.1208 6.02354C24.1066 6.09348 24.0464 6.39848 23.9871 6.70133L23.8794 7.25201L20.3346 7.25212L16.7897 7.25224V7.95838V8.66452H20.1792C22.0434 8.66452 23.5684 8.68356 23.568 8.70689C23.567 8.76124 23.3674 9.71708 23.3143 9.92146L23.274 10.0768H20.1438H17.0136L17.0479 10.2322C17.2846 11.303 17.4848 11.763 18.074 12.5897C18.4958 13.1814 19.5521 13.8398 20.4899 14.0953C21.1081 14.2637 22.4224 14.2783 23.0885 14.1239C23.6142 14.0022 24.2981 13.7028 24.5964 13.4639C24.7111 13.372 24.8191 13.2968 24.8364 13.2968C24.8538 13.2968 24.868 13.7642 24.868 14.3353C24.868 15.2748 24.8586 15.3769 24.7692 15.4053C24.7148 15.4226 24.4461 15.5147 24.1721 15.61C23.4942 15.8457 22.7823 15.9515 21.874 15.9514C20.2536 15.9511 18.9694 15.6053 17.7747 14.8474C17.3278 14.5638 16.5356 13.7602 16.2107 13.2608C15.6587 12.4123 15.2108 11.3282 15.0154 10.367L14.9538 10.0641L14.1488 10.0731C13.7056 10.0781 13.3438 10.0594 13.3438 10.0315C13.3438 10.0037 13.4073 9.69363 13.485 9.34242C13.5627 8.99121 13.6262 8.69356 13.6262 8.68091C13.6262 8.66825 13.874 8.66289 14.177 8.66899C14.5603 8.67673 14.7261 8.66057 14.7221 8.61583C14.719 8.58046 14.7127 8.2592 14.708 7.90189L14.6995 7.25224H14.0216C13.5614 7.25224 13.3438 7.23207 13.3438 7.18936C13.3438 7.15473 13.3952 6.9069 13.4579 6.63857C13.5207 6.37023 13.5846 6.09433 13.5998 6.02546C13.6259 5.90694 13.6599 5.89937 14.2323 5.88424L14.8372 5.86819L14.91 5.58573C15.1565 4.62978 15.4484 3.88765 15.8206 3.27043Z" fill="#E7A415"/>
</svg>