<svg width="56" height="28" viewBox="0 0 56 28" fill="none" xmlns="http://www.w3.org/2000/svg">
<g clip-path="url(#clip0_1399_49572)">
<path d="M26.4926 14.4456V20.8165H24.4375V5.06055H29.7808C31.0824 5.06055 32.3155 5.54007 33.2745 6.43063C34.2336 7.25267 34.7131 8.48574 34.7131 9.78732C34.7131 11.0889 34.2336 12.2535 33.2745 13.144C32.3155 14.0346 31.1509 14.5141 29.7808 14.5141L26.4926 14.4456ZM26.4926 6.97866V12.459H29.9178C30.6714 12.459 31.4249 12.185 31.9044 11.6369C33.0005 10.6094 33.0005 8.89677 31.9729 7.86921L31.9044 7.80071C31.3564 7.25267 30.6714 6.91015 29.9178 6.97866H26.4926Z" fill="#5F6368"/>
<path d="M39.4455 9.71875C40.9526 9.71875 42.1172 10.1298 43.0077 10.9518C43.8983 11.7739 44.3093 12.8699 44.3093 14.24V20.8164H42.3912V19.3093H42.3227C41.5006 20.5424 40.3361 21.1589 38.966 21.1589C37.8014 21.1589 36.7739 20.8164 35.9518 20.1313C35.1983 19.4463 34.7188 18.4873 34.7188 17.4597C34.7188 16.3636 35.1298 15.4731 35.9518 14.788C36.7739 14.103 37.9384 13.829 39.3085 13.829C40.5416 13.829 41.5006 14.0345 42.2542 14.514V14.0345C42.2542 13.3495 41.9802 12.6644 41.4321 12.2534C40.8841 11.7739 40.1991 11.4999 39.4455 11.4999C38.281 11.4999 37.3904 11.9794 36.7739 12.9384L34.9928 11.8424C36.0888 10.4038 37.5274 9.71875 39.4455 9.71875ZM36.8424 17.5282C36.8424 18.0762 37.1164 18.5558 37.5274 18.8298C38.0069 19.1723 38.555 19.3778 39.103 19.3778C39.9251 19.3778 40.7471 19.0353 41.3636 18.4188C42.0487 17.8022 42.3912 17.0487 42.3912 16.2266C41.7747 15.7471 40.8841 15.4731 39.7195 15.4731C38.8975 15.4731 38.2125 15.6786 37.6644 16.0896C37.1164 16.4321 36.8424 16.9117 36.8424 17.5282Z" fill="#5F6368"/>
<path d="M55.4036 10.0615L48.6217 25.6119H46.5665L49.1012 20.2001L44.6484 10.13H46.8406L50.0602 17.871H50.1288L53.2799 10.13H55.4036V10.0615Z" fill="#5F6368"/>
<path d="M18.3406 13.0752C18.3406 12.4587 18.2721 11.8421 18.2036 11.2256H9.64062V14.7193H14.5044C14.2989 15.8153 13.6824 16.8429 12.7233 17.4594V19.7201H15.669C17.3816 18.1445 18.3406 15.8153 18.3406 13.0752Z" fill="#4285F4"/>
<path d="M9.64597 21.912C12.1121 21.912 14.1672 21.0899 15.6743 19.7198L12.7286 17.4592C11.9066 18.0072 10.879 18.3497 9.64597 18.3497C7.31683 18.3497 5.26171 16.7742 4.57667 14.582H1.5625V16.9112C3.13809 19.9938 6.22077 21.912 9.64597 21.912Z" fill="#34A853"/>
<path d="M4.57629 14.5826C4.16527 13.4865 4.16527 12.2535 4.57629 11.0889V8.75977H1.56212C0.260544 11.2944 0.260544 14.3086 1.56212 16.9117L4.57629 14.5826Z" fill="#FBBC04"/>
<path d="M9.64778 7.38913C10.9494 7.38913 12.1824 7.86866 13.1415 8.75921L15.7446 6.15606C14.1005 4.64898 11.9084 3.75842 9.71628 3.82693C6.29108 3.82693 3.1399 5.74504 1.63281 8.82772L4.64699 11.1568C5.26352 8.96472 7.31864 7.38913 9.64778 7.38913Z" fill="#EA4335"/>
</g>
<defs>
<clipPath id="clip0_1399_49572">
<rect width="54.8032" height="26.1" fill="white" transform="translate(0.601562 0.950195)"/>
</clipPath>
</defs>
</svg>