<svg width="54" height="24" viewBox="0 0 54 24" fill="none" xmlns="http://www.w3.org/2000/svg">
<path d="M10.0012 4.33635C9.37321 5.07945 8.36845 5.66556 7.3637 5.58183C7.2381 4.57707 7.73001 3.50951 8.30566 2.85014C8.93363 2.08611 10.0326 1.54186 10.9222 1.5C11.0269 2.54662 10.6187 3.57231 10.0012 4.33635ZM10.9117 5.78068C9.45694 5.69696 8.21146 6.60752 7.52069 6.60752C6.81945 6.60752 5.76236 5.82255 4.61108 5.84348C3.11441 5.86441 1.7224 6.71218 0.958367 8.06232C-0.611567 10.7626 0.550184 14.7607 2.06779 16.9586C2.81089 18.0471 3.70052 19.2402 4.87274 19.1984C5.98215 19.1565 6.42174 18.4762 7.76141 18.4762C9.11156 18.4762 9.49881 19.1984 10.671 19.1774C11.8851 19.1565 12.6491 18.089 13.3922 17.0005C14.24 15.7655 14.5854 14.5618 14.6063 14.499C14.5854 14.4781 12.2619 13.5885 12.241 10.9091C12.22 8.66936 14.0725 7.60181 14.1563 7.53901C13.1097 5.99001 11.4769 5.82255 10.9117 5.78068ZM19.3161 2.74548V19.0623H21.849V13.4838H25.3551C28.5578 13.4838 30.808 11.2859 30.808 8.10419C30.808 4.92245 28.5997 2.74548 25.4389 2.74548H19.3161ZM21.849 4.88059H24.769C26.9669 4.88059 28.2229 6.05281 28.2229 8.11465C28.2229 10.1765 26.9669 11.3592 24.7586 11.3592H21.849V4.88059ZM35.4341 19.1879C37.025 19.1879 38.5007 18.382 39.1706 17.1051H39.2229V19.0623H41.5673V10.9405C41.5673 8.58563 39.6834 7.06803 36.7843 7.06803C34.0944 7.06803 32.1059 8.60656 32.0326 10.7207H34.3142C34.5026 9.71598 35.4341 9.05661 36.711 9.05661C38.26 9.05661 39.1287 9.77878 39.1287 11.108V12.0081L35.9679 12.1965C33.0269 12.3744 31.436 13.578 31.436 15.6713C31.436 17.7854 33.0792 19.1879 35.4341 19.1879ZM36.1144 17.2517C34.7643 17.2517 33.906 16.6028 33.906 15.6085C33.906 14.5828 34.7329 13.9862 36.3133 13.892L39.1287 13.7141V14.6351C39.1287 16.1632 37.8309 17.2517 36.1144 17.2517ZM44.6967 23.5C47.1668 23.5 48.3285 22.558 49.3437 19.7008L53.7919 7.22502H51.2172L48.2343 16.8644H48.182L45.1991 7.22502H42.5511L46.8423 19.1042L46.612 19.8264C46.2248 21.0509 45.5968 21.5219 44.4769 21.5219C44.2781 21.5219 43.8908 21.5009 43.7338 21.48V23.4372C43.8804 23.4791 44.5083 23.5 44.6967 23.5Z" fill="black"/>
</svg>