<svg width="60" height="20" viewBox="0 0 60 20" fill="none" xmlns="http://www.w3.org/2000/svg">
<g clip-path="url(#clip0_1399_49513)">
<path d="M38.8506 0.529297C34.6997 0.529297 30.9903 2.68078 30.9903 6.65581C30.9903 11.2144 37.5691 11.5293 37.5691 13.8194C37.5691 14.7837 36.464 15.6469 34.5766 15.6469C31.8981 15.6469 29.8961 14.4407 29.8961 14.4407L29.0395 18.452C29.0395 18.452 31.3457 19.4708 34.4076 19.4708C38.9458 19.4708 42.5169 17.2137 42.5169 13.1707C42.5169 8.35367 35.9107 8.04816 35.9107 5.92255C35.9107 5.16718 36.8178 4.33952 38.6998 4.33952C40.8233 4.33952 42.5557 5.2167 42.5557 5.2167L43.3941 1.34251C43.3941 1.34251 41.509 0.529297 38.8506 0.529297ZM0.873947 0.821689L0.773438 1.40647C0.773438 1.40647 2.51972 1.72607 4.09254 2.3636C6.11767 3.09465 6.26193 3.52023 6.60299 4.84207L10.3196 19.1693H15.3016L22.9769 0.821689H18.0063L13.0744 13.2963L11.062 2.72223C10.8774 1.51204 9.94254 0.821689 8.79821 0.821689H0.873947ZM24.9757 0.821689L21.0764 19.1693H25.8163L29.7019 0.821689H24.9757ZM51.412 0.821689C50.269 0.821689 49.6634 1.43361 49.2191 2.50294L42.2748 19.1693H47.2454L48.2071 16.3915H54.2628L54.8476 19.1693H59.2335L55.4072 0.821689H51.412ZM52.0584 5.77864L53.5318 12.6635H49.5845L52.0584 5.77864Z" fill="#1434CB"/>
</g>
<defs>
<clipPath id="clip0_1399_49513">
<rect width="58.5185" height="19" fill="white" transform="translate(0.742188 0.5)"/>
</clipPath>
</defs>
</svg>