<svg width="62" height="16" viewBox="0 0 62 16" fill="none" xmlns="http://www.w3.org/2000/svg">
<g clip-path="url(#clip0_1399_49535)">
<path d="M8.1816 0.00117493H3.51152C3.19189 0.00117493 2.92014 0.233411 2.87027 0.548994L0.981467 12.5243C0.9439 12.7605 1.12695 12.9736 1.3666 12.9736H3.59617C3.91574 12.9736 4.1875 12.7415 4.23736 12.4253L4.74677 9.19542C4.79597 8.87918 5.0684 8.64699 5.3873 8.64699H6.86571C9.94202 8.64699 11.7174 7.15835 12.1812 4.20838C12.3901 2.91775 12.19 1.90372 11.5857 1.19355C10.9219 0.413642 9.74466 0.00117493 8.1816 0.00117493ZM8.7204 4.37502C8.465 6.05077 7.18461 6.05077 5.94657 6.05077H5.24187L5.73625 2.92121C5.76564 2.73203 5.92949 2.59273 6.12072 2.59273H6.44368C7.28701 2.59273 8.08259 2.59274 8.49365 3.07342C8.73882 3.36026 8.81395 3.78635 8.7204 4.37502Z" fill="#283B82"/>
<path d="M22.14 4.32057H19.9037C19.7132 4.32057 19.5486 4.45988 19.5191 4.64904L19.4203 5.27454L19.2638 5.0478C18.7797 4.34512 17.7 4.11026 16.6225 4.11026C14.1512 4.11026 12.0405 5.98198 11.6294 8.60759C11.4157 9.91731 11.7195 11.1697 12.4625 12.043C13.144 12.8461 14.1191 13.1807 15.2793 13.1807C17.2706 13.1807 18.3748 11.9004 18.3748 11.9004L18.275 12.5218C18.2374 12.7594 18.4205 12.9725 18.6589 12.9725H20.6732C20.9935 12.9725 21.2639 12.7403 21.3145 12.4241L22.5231 4.76988C22.5614 4.53428 22.379 4.32057 22.14 4.32057ZM19.0227 8.67315C18.807 9.95074 17.7929 10.8085 16.4996 10.8085C15.8502 10.8085 15.3312 10.6002 14.9979 10.2055C14.6675 9.81351 14.5418 9.25562 14.647 8.63418C14.8484 7.36749 15.8796 6.48186 17.153 6.48186C17.7882 6.48186 18.3044 6.69284 18.6445 7.09089C18.9853 7.4931 19.1203 8.05444 19.0227 8.67315Z" fill="#283B82"/>
<path d="M34.0523 4.3209H31.805C31.5906 4.3209 31.3891 4.42743 31.2676 4.60569L28.1681 9.1713L26.8543 4.7839C26.7717 4.50935 26.5183 4.3209 26.2315 4.3209H24.0232C23.7547 4.3209 23.5684 4.58309 23.6537 4.83576L26.1291 12.1001L23.8019 15.3854C23.6188 15.6441 23.8032 16 24.1195 16H26.364C26.577 16 26.7765 15.8961 26.8973 15.7213L34.3719 4.9321C34.5508 4.67392 34.3672 4.3209 34.0523 4.3209Z" fill="#283B82"/>
<path d="M41.4941 0.00117493H36.8233C36.5045 0.00117493 36.2326 0.233411 36.1827 0.548994L34.2939 12.5243C34.2565 12.7605 34.4394 12.9736 34.6778 12.9736H37.0746C37.2972 12.9736 37.4878 12.8112 37.5226 12.5899L38.0586 9.19542C38.1077 8.87918 38.3803 8.64699 38.6991 8.64699H40.1769C43.2538 8.64699 45.0286 7.15835 45.493 4.20838C45.7027 2.91775 45.5012 1.90372 44.8968 1.19355C44.2338 0.413642 43.0572 0.00117493 41.4941 0.00117493ZM42.0329 4.37502C41.7782 6.05077 40.4979 6.05077 39.2591 6.05077H38.5551L39.0502 2.92121C39.0796 2.73203 39.242 2.59273 39.4339 2.59273H39.7569C40.5996 2.59273 41.3958 2.59274 41.8068 3.07342C42.052 3.36026 42.1264 3.78635 42.0329 4.37502Z" fill="#469BDB"/>
<path d="M55.4497 4.32057H53.2147C53.0228 4.32057 52.8595 4.45988 52.8308 4.64904L52.7318 5.27454L52.5748 5.0478C52.0907 4.34512 51.0117 4.11026 49.9342 4.11026C47.4628 4.11026 45.3529 5.98198 44.9417 8.60759C44.7287 9.91731 45.0312 11.1697 45.7742 12.043C46.4571 12.8461 47.4307 13.1807 48.5909 13.1807C50.5822 13.1807 51.6863 11.9004 51.6863 11.9004L51.5866 12.5218C51.5491 12.7594 51.7321 12.9725 51.9719 12.9725H53.9856C54.3045 12.9725 54.5763 12.7403 54.6262 12.4241L55.8355 4.76988C55.8723 4.53428 55.6893 4.32057 55.4497 4.32057ZM52.3323 8.67315C52.1179 9.95074 51.1025 10.8085 49.8092 10.8085C49.1611 10.8085 48.6408 10.6002 48.3075 10.2055C47.9771 9.81351 47.8528 9.25562 47.9566 8.63418C48.1594 7.36749 49.1892 6.48186 50.4628 6.48186C51.0978 6.48186 51.614 6.69284 51.9541 7.09089C52.2961 7.4931 52.4313 8.05444 52.3323 8.67315Z" fill="#469BDB"/>
<path d="M58.0858 0.329737L56.1689 12.5243C56.1315 12.7605 56.3144 12.9736 56.5528 12.9736H58.4798C58.8 12.9736 59.0719 12.7415 59.121 12.4253L61.0111 0.450698C61.0487 0.214332 60.8658 0.000618935 60.6274 0.000618935H58.4695C58.279 0.00118828 58.1152 0.140672 58.0858 0.329737Z" fill="#469BDB"/>
</g>
<defs>
<clipPath id="clip0_1399_49535">
<rect width="60.0421" height="16" fill="white" transform="translate(0.976562)"/>
</clipPath>
</defs>
</svg>